HIERARCHY
ROOT hip
{
	OFFSET 0.000000 0.000000 0.000000 
	CHANNELS 6 Xposition Yposition Zposition Xrotation Zrotation Yrotation
	JOINT abdomen
	{
		OFFSET 0.000000 3.402643 0.000000 
		CHANNELS 3 Xrotation Zrotation Yrotation
		JOINT chest
		{
			OFFSET 0.000000 8.438565 -0.680529 
			CHANNELS 3 Xrotation Zrotation Yrotation
			JOINT neck
			{
				OFFSET 0.000000 10.207942 -0.272212 
				CHANNELS 3 Xrotation Zrotation Yrotation
				JOINT head
				{
					OFFSET 0.000000 3.130431 0.000000 
					CHANNELS 3 Xrotation Zrotation Yrotation
					End Site
					{
						OFFSET 0.000000 3.130435 0.000000 
					}
				}
			}
			JOINT lCollar
			{
				OFFSET 3.470700 6.669187 -0.816635 
				CHANNELS 3 Yrotation Zrotation Xrotation
				JOINT lShldr
				{
					OFFSET 3.198488 0.000000 0.000000 
					CHANNELS 3 Zrotation Yrotation Xrotation
					JOINT lForeArm
					{
						OFFSET 10.139888 0.000000 0.000000 
						CHANNELS 3 Yrotation Zrotation Xrotation
						JOINT lHand
						{
							OFFSET 8.370511 0.000000 0.000000 
							CHANNELS 3 Zrotation Yrotation Xrotation
							End Site
							{
								OFFSET 4.083176 0.000000 0.000000 
							}
						}
					}
				}
			}
			JOINT rCollar
			{
				OFFSET -3.470700 6.669187 -0.816635 
				CHANNELS 3 Yrotation Zrotation Xrotation
				JOINT rShldr
				{
					OFFSET -3.198488 0.000000 0.000000 
					CHANNELS 3 Zrotation Yrotation Xrotation
					JOINT rForeArm
					{
						OFFSET -10.139888 0.000000 0.000000 
						CHANNELS 3 Yrotation Zrotation Xrotation
						JOINT rHand
						{
							OFFSET -8.370511 0.000000 0.000000 
							CHANNELS 3 Zrotation Yrotation Xrotation
							End Site
							{
								OFFSET -4.083176 0.000000 0.000000 
							}
						}
					}
				}
			}
		}
	}
	JOINT lThigh
	{
		OFFSET 5.308129 -1.633274 1.361059 
		CHANNELS 3 Xrotation Zrotation Yrotation
		JOINT lShin
		{
			OFFSET -2.041588 -20.007561 0.000000 
			CHANNELS 3 Xrotation Zrotation Yrotation
			JOINT lFoot
			{
				OFFSET 0.000000 -19.190928 -1.224953 
				CHANNELS 3 Xrotation Yrotation Zrotation
				End Site
				{
					OFFSET 0.000000 -2.449906 4.627600 
				}
			}
		}
	}
	JOINT rThigh
	{
		OFFSET -5.308129 -1.633274 1.361059 
		CHANNELS 3 Xrotation Zrotation Yrotation
		JOINT rShin
		{
			OFFSET 2.041588 -20.007561 0.000000 
			CHANNELS 3 Xrotation Zrotation Yrotation
			JOINT rFoot
			{
				OFFSET 0.000000 -19.190928 -1.224953 
				CHANNELS 3 Xrotation Yrotation Zrotation
				End Site
				{
					OFFSET 0.000000 -2.449906 4.627600 
				}
			}
		}
	}
}
MOTION
Frames: 10
Frame Time: 0.033333
0.527680 14.149335 0.527680 81.933594 0.000000 -51.992184 0.000000 0.000000 0.000000 0.802691 -0.125724 7.978518 5.156250 -0.009766 0.000000 -51.383656 12.001983 27.898788 1.992188 -2.001953 0.000341 19.779114 -29.379082 -29.130428 -88.831100 1.604749 21.137608 37.239475 -41.903236 -4.668291 -2.001953 1.992188 0.000000 79.193550 74.131493 4.934810 58.737591 -1.398699 20.166821 -21.496582 51.235935 18.759499 -55.276733 -10.888247 4.109663 48.968914 -0.361480 -3.619356 23.345053 -11.740941 -1.188976 -5.361091 16.620401 -14.613829 32.036736 1.160208 2.664069 -34.772125 -16.563488 -0.540071 
0.527680 14.127687 0.527680 81.933594 0.000000 -51.992184 0.000000 0.000000 0.000000 0.859929 -0.135395 7.978517 5.156250 -0.009766 0.000000 -51.073006 11.783256 27.985144 1.992188 -2.001953 0.000341 19.859478 -29.282602 -29.293468 -88.968719 1.598708 21.148365 37.161541 -41.817497 -4.640579 -2.001953 1.992188 0.000000 79.115685 74.246590 4.853635 58.737591 -1.398699 20.166821 -21.496582 51.235935 18.759499 -55.266754 -10.888043 4.107623 48.939991 -0.361442 -3.608249 23.382517 -11.726664 -1.201841 -5.397013 16.596619 -14.632222 32.085506 1.150441 2.673685 -34.784992 -16.564688 -0.518715 
0.527680 14.106040 0.527680 81.933594 0.000000 -51.992184 0.000000 0.000000 0.000000 0.917168 -0.145066 7.978539 5.156250 -0.009766 0.000000 -50.755554 11.537974 28.077517 1.992188 -2.001953 0.000341 19.920017 -29.181881 -29.470118 -89.117355 1.600270 21.149057 37.082912 -41.724648 -4.606476 -2.001953 1.992188 0.000000 79.023369 74.380829 4.752610 58.737591 -1.398699 20.166821 -21.496582 51.235935 18.759499 -55.264297 -10.897645 4.130819 48.890888 -0.351746 -3.611362 23.425369 -11.733007 -1.189525 -5.446435 16.587723 -14.642505 32.153927 1.160123 2.670072 -34.792770 -16.576187 -0.517791 
0.527680 14.084388 0.527680 81.933594 0.000000 -51.992184 0.000000 0.000000 0.000000 0.974406 -0.154738 7.978539 5.156250 -0.009766 0.000000 -50.424431 11.301716 28.172396 1.992188 -2.001953 0.000341 19.989735 -29.076242 -29.651527 -89.265579 1.611731 21.158394 36.998188 -41.644756 -4.567044 -2.001953 1.992188 0.000000 78.922821 74.525124 4.660771 58.737591 -1.398699 20.166821 -21.496582 51.235935 18.759499 -55.252972 -10.907298 4.131322 48.831970 -0.353230 -3.618825 23.451195 -11.726289 -1.185081 -5.495299 16.568378 -14.653027 32.203106 1.160172 2.662894 -34.793419 -16.578032 -0.507493 
0.527680 14.073527 0.527680 81.933594 0.000000 -51.992184 0.000000 0.000000 0.000000 1.031644 -0.164409 7.978539 5.156250 -0.009766 0.000000 -50.074211 11.048654 28.265903 1.992188 -2.001953 0.000341 20.068998 -28.977406 -29.835199 -89.417625 1.602868 21.157618 36.901390 -41.554646 -4.533106 -2.001953 1.992188 0.000000 78.826950 74.658752 4.549866 58.737591 -1.398699 20.166821 -21.496582 51.235935 18.759499 -55.269997 -10.937676 4.129485 48.803806 -0.345279 -3.584996 23.487616 -11.720513 -1.179858 -5.537074 16.552109 -14.671085 32.261280 1.150413 2.682703 -34.805489 -16.577974 -0.500241 
0.527680 14.062671 0.527680 81.933594 0.000000 -51.992184 0.000000 0.000000 0.000000 1.098648 -0.174080 7.978537 5.156250 -0.009766 0.000000 -49.739292 10.787432 28.358160 1.992188 -2.001953 0.000341 20.142162 -28.869946 -30.008505 -89.569374 1.603863 21.165167 36.817688 -41.463768 -4.512465 -2.001953 1.992188 0.000000 78.729515 74.792862 4.448650 58.737591 -1.398699 20.166821 -21.496582 51.235935 18.759499 -55.269318 -10.946880 4.124159 48.755348 -0.351764 -3.575747 23.540527 -11.728721 -1.166894 -5.586082 16.532904 -14.694047 32.329945 1.140012 2.683429 -34.827156 -16.573687 -0.511925 
0.527680 14.051880 0.527680 81.933594 0.000000 -51.992184 0.000000 0.000000 0.000000 1.165652 -0.183751 7.978537 5.156250 -0.009766 0.000000 -49.382454 10.519035 28.441517 1.992188 -2.001953 0.000341 20.219763 -28.758951 -30.194508 -89.731735 1.602854 21.172373 36.713440 -41.372341 -4.460287 -2.001953 1.992188 0.000000 78.623177 74.936501 4.346874 58.737591 -1.398699 20.166821 -21.496582 51.235935 18.759499 -55.269318 -10.946880 4.124159 48.706478 -0.371220 -3.581737 23.598274 -11.724485 -1.160080 -5.614276 16.511488 -14.707477 32.378395 1.140699 2.695818 -34.846462 -16.582851 -0.510479 
0.527680 14.041090 0.527680 81.933594 0.000000 -51.992184 0.000000 0.000000 0.000000 1.232656 -0.193422 7.978537 5.156250 -0.009766 0.000000 -49.024620 10.250128 28.533335 1.992188 -2.001953 0.000341 20.296118 -28.635996 -30.387646 -89.897583 1.601179 21.188169 36.629177 -41.274281 -4.427267 -2.001953 1.992188 0.000000 78.552589 75.079353 4.263914 58.737591 -1.398699 20.166821 -21.496582 51.235935 18.759499 -55.269875 -10.947015 4.114759 48.667408 -0.381032 -3.584047 23.647104 -11.701788 -1.132082 -5.649338 16.486782 -14.716117 32.437244 1.155617 2.683437 -34.855133 -16.562778 -0.485023 
0.527680 14.008581 0.527680 81.933594 0.000000 -51.992184 0.000000 0.000000 0.000000 1.309425 -0.203093 7.978534 5.156250 -0.009766 0.000000 -48.662643 9.973125 28.625881 1.992188 -2.001953 0.000341 20.377365 -28.521242 -30.581577 -90.067093 1.598780 21.192938 36.532055 -41.176945 -4.388199 -2.001953 1.992188 0.000000 78.434998 75.232460 4.142654 58.737591 -1.398699 20.166821 -21.496582 51.235935 18.759499 -55.256077 -10.966264 4.140303 48.608856 -0.380976 -3.581170 23.693127 -11.695237 -1.135440 -5.697421 16.466480 -14.716903 32.495636 1.150439 2.694758 -34.881786 -16.577572 -0.499103 
0.527680 13.976075 0.527680 81.933594 0.000000 -51.992184 0.000000 0.000000 0.000000 1.376466 -0.212769 7.968803 5.156250 -0.009766 0.000000 -48.293446 9.697511 28.709578 1.992188 -2.001953 0.000341 20.457922 -28.406288 -30.775467 -90.236610 1.596370 21.196678 36.441166 -41.066586 -4.355297 -2.001953 1.992188 0.000000 78.283890 75.376633 3.993468 58.737591 -1.398699 20.166821 -21.496582 51.235935 18.759499 -55.254837 -10.975337 4.144380 48.559353 -0.380952 -3.598117 23.729431 -11.689408 -1.132200 -5.752299 16.454535 -14.739519 32.564301 1.140037 2.695464 -34.895710 -16.605246 -0.501533 
